<svg
        xmlns="http://www.w3.org/2000/svg"
        xmlns:xlink="http://www.w3.org/1999/xlink"
        width="541px" height="153px">
    <path fill-rule="evenodd"  fill="rgb(255, 255, 255)"
          d="M458.69,106.41 C458.814,112.679 460.609,117.623 463.453,120.874 C467.449,125.547 472.663,127.884 479.98,127.884 C483.161,127.884 487.22,126.868 490.679,124.836 C492.914,123.550 495.317,121.280 497.891,118.29 L538.628,121.788 C532.396,132.626 524.878,140.398 516.75,145.105 C507.271,149.812 494.641,152.166 478.184,152.166 C463.893,152.166 452.650,150.150 444.457,146.121 C436.262,142.92 429.473,135.691 424.89,126.919 C418.705,118.148 416.13,107.836 416.13,95.982 C416.13,79.117 421.412,65.470 432.216,55.39 C443.17,44.609 457.933,39.393 476.964,39.393 C492.406,39.393 504.596,41.729 513.536,46.403 C522.475,51.76 529.282,57.850 533.955,66.722 C538.628,75.596 540.964,87.143 540.964,101.367 L540.964,106.41 L458.69,106.41 ZM492.456,69.59 C488.968,65.605 484.380,63.878 478.691,63.878 C472.122,63.878 466.872,66.486 462.946,71.701 C460.439,74.952 458.847,79.795 458.171,86.229 L498.907,86.229 C498.94,78.238 495.944,72.513 492.456,69.59 ZM365.918,41.831 L407.264,41.831 L407.264,149.728 L365.918,149.728 L365.918,41.831 ZM365.918,0.786 L407.264,0.786 L407.264,28.928 L365.918,28.928 L365.918,0.786 ZM282.468,149.728 L237.602,41.831 L280.621,41.831 L301.551,110.206 L323.268,41.831 L364.992,41.831 L319.140,149.728 L282.468,149.728 ZM232.968,136.266 C221.961,146.867 206.741,152.166 187.305,152.166 C169.967,152.166 155.948,147.764 145.248,138.958 C132.108,128.54 125.540,113.762 125.540,96.84 C125.540,79.625 131.92,66.62 142.200,55.394 C153.306,44.726 168.308,39.393 187.203,39.393 C208.806,39.393 225.128,45.658 236.168,58.188 C245.39,68.281 249.476,80.709 249.476,95.474 C249.476,112.70 243.972,125.666 232.968,136.266 ZM202.136,74.698 C198.276,70.126 193.501,67.840 187.813,67.840 C181.784,67.840 176.806,70.161 172.879,74.799 C168.951,79.439 166.987,86.501 166.987,95.982 C166.987,105.601 168.933,112.713 172.828,117.318 C176.722,121.925 181.616,124.227 187.508,124.227 C193.466,124.227 198.360,121.958 202.187,117.420 C206.12,112.883 207.927,105.601 207.927,95.576 C207.927,86.229 205.997,79.270 202.136,74.698 ZM97.845,143.28 C88.736,149.188 77.71,152.267 62.849,152.267 C47.814,152.267 36.165,150.236 27.903,146.172 C19.640,142.108 13.257,136.164 8.754,128.341 C4.249,120.518 1.592,110.851 0.779,99.335 L44.766,93.341 C44.833,99.911 45.409,104.788 46.493,107.971 C47.576,111.155 49.404,113.729 51.979,115.692 C53.739,116.980 56.246,117.623 59.496,117.623 C64.642,117.623 68.419,115.711 70.823,111.887 C73.227,108.65 74.430,101.618 74.430,92.550 L74.430,0.786 L120.550,0.786 L120.550,81.705 C120.550,98.694 119.42,111.622 116.29,120.490 C113.15,129.357 106.953,136.869 97.845,143.28 Z"/>
</svg>