<svg width="59" height="23" viewBox="0 0 59 23" fill="none" xmlns="http://www.w3.org/2000/svg">
<path d="M5.832 18.0722H14.288V21.9922H0.4V18.3522L8.8 6.25619H0.4V2.33619H14.288V5.97619L5.832 18.0722ZM32.1437 13.9282C32.1437 14.3762 32.1157 14.8429 32.0597 15.3282H21.2237C21.2984 16.2989 21.6064 17.0455 22.1477 17.5682C22.7077 18.0722 23.389 18.3242 24.1917 18.3242C25.3864 18.3242 26.217 17.8202 26.6837 16.8122H31.7797C31.5184 17.8389 31.0424 18.7629 30.3517 19.5842C29.6797 20.4055 28.8304 21.0495 27.8037 21.5162C26.777 21.9829 25.629 22.2162 24.3597 22.2162C22.829 22.2162 21.4664 21.8895 20.2717 21.2362C19.077 20.5829 18.1437 19.6495 17.4717 18.4362C16.7997 17.2229 16.4637 15.8042 16.4637 14.1802C16.4637 12.5562 16.7904 11.1375 17.4437 9.92419C18.1157 8.71085 19.049 7.77752 20.2437 7.12419C21.4384 6.47085 22.8104 6.14419 24.3597 6.14419C25.8717 6.14419 27.2157 6.46152 28.3917 7.09619C29.5677 7.73085 30.4824 8.63619 31.1357 9.81219C31.8077 10.9882 32.1437 12.3602 32.1437 13.9282ZM27.2437 12.6682C27.2437 11.8469 26.9637 11.1935 26.4037 10.7082C25.8437 10.2229 25.1437 9.98019 24.3037 9.98019C23.501 9.98019 22.8197 10.2135 22.2597 10.6802C21.7184 11.1469 21.3824 11.8095 21.2517 12.6682H27.2437ZM39.4576 1.27219V21.9922H34.6696V1.27219H39.4576ZM50.7674 10.3442H48.1914V21.9922H43.4034V10.3442H41.6674V6.36819H43.4034V5.92019C43.4034 3.99752 43.9541 2.54152 45.0554 1.55219C46.1567 0.544187 47.7714 0.0401864 49.8994 0.0401864C50.2541 0.0401864 50.5154 0.0495196 50.6834 0.068186V4.12819C49.7687 4.07219 49.1247 4.20285 48.7514 4.52019C48.3781 4.83752 48.1914 5.40685 48.1914 6.22819V6.36819H50.7674V10.3442ZM55.2573 22.2162C54.4173 22.2162 53.7266 21.9735 53.1853 21.4882C52.6626 20.9842 52.4013 20.3682 52.4013 19.6402C52.4013 18.8935 52.6626 18.2682 53.1853 17.7642C53.7266 17.2602 54.4173 17.0082 55.2573 17.0082C56.0786 17.0082 56.7506 17.2602 57.2733 17.7642C57.8146 18.2682 58.0853 18.8935 58.0853 19.6402C58.0853 20.3682 57.8146 20.9842 57.2733 21.4882C56.7506 21.9735 56.0786 22.2162 55.2573 22.2162Z" fill="black"/>
</svg>
