<?xml version="1.0" standalone="no"?>
<!DOCTYPE svg PUBLIC "-//W3C//DTD SVG 20010904//EN"
 "http://www.w3.org/TR/2001/REC-SVG-20010904/DTD/svg10.dtd">
<svg version="1.0" xmlns="http://www.w3.org/2000/svg"
 width="708.000000pt" height="708.000000pt" viewBox="0 0 708.000000 708.000000"
 preserveAspectRatio="xMidYMid meet">
<metadata>
Created by potrace 1.14, written by Peter Selinger 2001-2017
</metadata>
<g transform="translate(0.000000,708.000000) scale(0.100000,-0.100000)"
fill="#000000" stroke="none">
<path d="M3317 7014 c-1 -2 -34 -5 -72 -8 -39 -2 -70 -5 -70 -6 0 0 -25 -3
-55 -5 -30 -2 -95 -11 -145 -20 -49 -9 -101 -18 -115 -20 -14 -2 -36 -7 -50
-10 -14 -3 -41 -8 -60 -12 -46 -9 -50 -10 -52 -12 -2 -2 -14 -5 -28 -7 -14 -3
-56 -14 -95 -26 -38 -11 -74 -21 -80 -23 -5 -1 -17 -5 -25 -8 -8 -3 -40 -13
-70 -23 -85 -26 -266 -98 -365 -145 -49 -23 -92 -43 -95 -44 -21 -5 -286 -155
-315 -178 -5 -4 -32 -22 -60 -40 -27 -17 -54 -35 -60 -40 -5 -4 -49 -36 -96
-70 -89 -64 -151 -114 -228 -182 -61 -54 -287 -281 -334 -336 -20 -24 -47 -55
-58 -69 -79 -92 -276 -374 -302 -430 -4 -8 -21 -37 -37 -65 -17 -27 -45 -79
-63 -115 -18 -36 -34 -67 -37 -70 -11 -11 -50 -101 -50 -115 0 -8 -4 -15 -10
-15 -5 0 -9 -3 -8 -7 1 -5 -4 -19 -9 -33 -53 -124 -129 -341 -138 -392 -3 -17
-8 -35 -11 -40 -3 -4 -7 -16 -9 -25 -3 -10 -11 -45 -20 -78 -8 -33 -17 -73
-20 -90 -3 -16 -12 -64 -20 -106 -8 -42 -17 -98 -20 -125 -3 -27 -8 -58 -10
-69 -13 -66 -20 -220 -19 -430 1 -214 5 -295 18 -392 2 -15 7 -50 11 -78 6
-50 39 -230 50 -272 3 -13 7 -32 9 -43 20 -89 80 -289 106 -355 4 -11 23 -58
41 -105 18 -47 55 -132 83 -190 27 -58 50 -107 51 -110 1 -9 89 -165 122 -217
18 -29 34 -56 34 -60 1 -5 14 -24 30 -44 16 -20 29 -39 29 -42 0 -5 31 -49
123 -171 26 -34 70 -89 136 -166 48 -57 269 -280 335 -338 115 -101 306 -243
436 -324 41 -26 80 -51 86 -55 82 -62 561 -283 669 -309 17 -4 35 -9 40 -13 6
-3 12 -6 15 -7 3 0 30 -8 60 -18 152 -48 408 -104 555 -121 33 -4 71 -9 85
-11 164 -25 719 -25 832 0 13 3 46 8 73 11 57 6 156 22 235 39 60 13 76 17 95
21 85 17 384 108 410 123 6 4 15 7 20 7 10 1 39 12 100 40 16 7 50 21 75 31
71 29 272 130 363 183 148 85 381 247 473 327 12 11 46 39 75 64 30 24 108 99
174 165 109 110 153 157 225 241 24 28 192 252 218 290 34 50 113 181 137 227
11 20 23 37 27 37 5 0 8 5 8 10 0 6 29 70 64 143 71 147 90 190 101 227 4 14
11 30 15 35 10 14 110 323 124 385 32 140 67 314 71 355 3 27 7 60 9 72 27
131 28 674 2 833 -2 14 -7 47 -11 73 -4 27 -8 59 -11 70 -2 12 -7 40 -10 62
-2 22 -12 69 -20 105 -9 36 -17 74 -19 85 -2 11 -9 40 -16 65 -15 53 -12 44
-28 100 -6 25 -15 52 -18 60 -3 8 -7 20 -9 25 -8 33 -78 217 -113 299 -53 124
-154 319 -219 424 -29 46 -52 88 -52 93 0 5 -4 9 -8 9 -5 0 -13 10 -19 23 -11
24 -195 272 -222 298 -9 9 -32 36 -51 60 -37 46 -258 270 -325 329 -111 98
-297 239 -418 315 -154 99 -215 133 -383 215 -105 51 -330 148 -359 154 -21 5
-61 18 -80 26 -22 10 -190 58 -223 65 -12 2 -26 6 -31 9 -5 3 -26 8 -46 12
-51 8 -74 12 -93 18 -18 5 -52 12 -112 23 l-35 6 70 -74 c134 -142 211 -279
282 -504 2 -5 11 -57 22 -115 22 -129 21 -330 -4 -440 -9 -41 -18 -84 -20 -95
-8 -39 -45 -138 -56 -151 -6 -8 -8 -14 -5 -14 14 0 -98 -194 -131 -228 -7 -7
-13 -17 -13 -21 0 -9 -132 -145 -175 -181 -16 -14 -49 -39 -72 -55 -24 -17
-43 -33 -43 -36 0 -4 17 -10 37 -14 106 -20 349 -140 483 -239 75 -56 96 -74
174 -151 108 -106 133 -136 206 -244 138 -205 232 -457 257 -689 14 -130 7
-355 -13 -457 -4 -16 -8 -37 -9 -45 -17 -115 -131 -400 -196 -492 -11 -14 -19
-29 -19 -32 0 -17 -138 -183 -220 -266 -89 -89 -220 -192 -300 -236 -19 -10
-37 -22 -40 -25 -25 -27 -301 -136 -405 -159 -27 -7 -59 -14 -70 -16 -171 -38
-495 -38 -650 0 -5 2 -28 6 -50 10 -22 4 -47 10 -55 13 -8 3 -23 8 -33 10 -35
6 -232 86 -235 95 -2 4 -9 8 -16 8 -12 0 -120 56 -141 72 -5 5 -35 25 -66 46
-120 79 -273 224 -359 337 -25 33 -51 66 -57 73 -7 7 -13 20 -13 28 0 8 -4 14
-9 14 -12 0 -151 277 -151 300 0 9 -3 20 -7 24 -5 4 -9 12 -9 17 -1 5 -3 11
-4 14 -1 3 -3 8 -4 13 -2 4 -8 27 -15 52 -41 139 -55 251 -55 420 0 125 5 193
22 283 5 26 8 47 5 47 -2 0 1 8 6 18 6 11 12 30 15 43 32 167 169 436 304 598
55 67 231 241 244 241 4 0 13 6 20 13 20 20 127 91 178 118 25 13 47 26 50 29
6 6 167 80 174 80 3 0 15 4 28 9 13 5 26 9 30 10 4 1 27 9 50 17 37 13 90 27
150 39 9 2 38 7 65 11 26 3 57 8 68 10 11 2 67 6 125 9 119 6 143 10 220 35
199 64 357 190 477 378 20 31 36 62 36 69 0 7 3 13 7 13 6 0 53 106 50 112 -1
2 4 17 10 33 22 56 53 227 52 290 -2 155 -29 303 -78 420 -14 33 -28 68 -31
78 -3 9 -9 17 -14 17 -5 0 -9 6 -9 13 0 21 -91 145 -149 204 -28 29 -75 70
-103 91 -77 56 -227 130 -278 137 -3 0 -10 3 -16 7 -10 7 -321 8 -327 2z"/>
</g>
</svg>
