<?xml version="1.0" standalone="no"?>
<!DOCTYPE svg PUBLIC "-//W3C//DTD SVG 20010904//EN"
 "http://www.w3.org/TR/2001/REC-SVG-20010904/DTD/svg10.dtd">
<svg version="1.0" xmlns="http://www.w3.org/2000/svg"
 width="636.000000pt" height="636.000000pt" viewBox="0 0 636.000000 636.000000"
 preserveAspectRatio="xMidYMid meet">
<metadata>
Created by potrace 1.14, written by Peter Selinger 2001-2017
</metadata>
<g transform="translate(0.000000,636.000000) scale(0.100000,-0.100000)"
fill="#000000" stroke="none">
<path d="M988 3648 c-3 -573 -3 -584 -25 -630 -26 -58 -60 -80 -128 -86 -102
-8 -160 59 -172 198 -6 70 -6 71 -32 66 -14 -3 -114 -17 -221 -31 -266 -35
-242 -26 -235 -83 13 -91 36 -168 74 -247 94 -190 259 -278 550 -292 364 -17
607 138 678 433 14 59 17 153 20 662 l4 592 -255 0 -255 0 -3 -582z"/>
<path d="M4250 4070 l0 -160 230 0 230 0 0 160 0 160 -230 0 -230 0 0 -160z"/>
<path d="M2094 3786 c-155 -30 -259 -82 -356 -178 -74 -74 -135 -184 -159
-288 -18 -78 -16 -242 4 -319 56 -211 216 -368 442 -433 111 -31 341 -31 458
0 207 56 368 203 428 391 30 92 37 282 15 371 -57 226 -213 381 -443 441 -102
26 -292 34 -389 15z m278 -332 c28 -20 53 -50 73 -89 29 -57 30 -63 30 -195 0
-132 -1 -138 -30 -195 -40 -79 -94 -117 -173 -123 -65 -5 -109 10 -158 51
-123 104 -118 444 9 541 50 38 76 46 144 43 51 -2 71 -9 105 -33z"/>
<path d="M5335 3790 c-202 -32 -374 -147 -457 -306 -107 -203 -99 -473 18
-666 77 -127 192 -210 341 -248 159 -41 427 -36 582 12 89 27 144 60 218 131
60 57 131 153 121 162 -2 3 -103 14 -223 25 l-219 19 -45 -42 c-115 -108 -296
-81 -363 53 -15 30 -30 72 -34 93 l-6 37 462 0 463 0 -6 123 c-3 67 -12 149
-21 182 -58 215 -212 360 -436 410 -88 20 -310 28 -395 15z m260 -279 c67 -30
107 -88 124 -178 l8 -43 -228 0 c-126 0 -229 3 -229 7 0 4 8 34 17 67 19 70
80 139 135 155 54 15 130 12 173 -8z"/>
<path d="M2820 3763 c0 -5 111 -275 247 -601 l247 -592 205 2 204 3 253 595
c140 327 254 596 254 598 0 1 -104 1 -231 0 l-232 -3 -49 -155 c-145 -456
-190 -591 -194 -587 -3 3 -56 171 -118 373 l-113 369 -237 3 c-130 1 -236 -1
-236 -5z"/>
<path d="M4250 3170 l0 -600 230 0 230 0 0 600 0 600 -230 0 -230 0 0 -600z"/>
</g>
</svg>
